REM DIRINDEX 1\5,1\2\6,1\2\7,1\3\8,1\3\9,1\4\10,1\4\11,1\4\12
REM DIRNAME folder01,folder02,folder03,folder04,folder05,folder06,folder07,folder08,folder09,folder10,folder11,folder12
TITLE ""
FILE "EJE_DB3000_5th_1A_20.mp3" MP3
  TRACK 01 AUDIO
    TITLE "0:"
    INDEX 01 00:00:00
  TRACK 02 AUDIO
    TITLE "10:cjc026_07398"
    INDEX 01 00:00:05
  TRACK 03 AUDIO
    TITLE "0:"
    INDEX 01 00:01:07
  TRACK 04 AUDIO
    TITLE "11:cjc026_07399"
    INDEX 01 00:01:34
  TRACK 05 AUDIO
    TITLE "0:"
    INDEX 01 00:02:30
  TRACK 06 AUDIO
    TITLE "12:cjc026_07400"
    INDEX 01 00:02:55
  TRACK 07 AUDIO
    TITLE "0:"
    INDEX 01 00:03:59
  TRACK 08 AUDIO
    TITLE "10:cjc026_07401"
    INDEX 01 00:04:09
  TRACK 09 AUDIO
    TITLE "0:"
    INDEX 01 00:05:07
  TRACK 10 AUDIO
    TITLE "11:cjc026_07402"
    INDEX 01 00:05:32
  TRACK 11 AUDIO
    TITLE "0:"
    INDEX 01 00:06:28
  TRACK 12 AUDIO
    TITLE "12:cjc026_07403"
    INDEX 01 00:06:53
  TRACK 13 AUDIO
    TITLE "0:"
    INDEX 01 00:07:51
  TRACK 14 AUDIO
    TITLE "10:cjc026_07404"
    INDEX 01 00:08:01
  TRACK 15 AUDIO
    TITLE "0:"
    INDEX 01 00:09:12
  TRACK 16 AUDIO
    TITLE "11:cjc026_07405"
    INDEX 01 00:09:36
  TRACK 17 AUDIO
    TITLE "0:"
    INDEX 01 00:10:33
  TRACK 18 AUDIO
    TITLE "12:cjc026_07406"
    INDEX 01 00:10:59
  TRACK 19 AUDIO
    TITLE "0:"
    INDEX 01 00:11:70
  TRACK 20 AUDIO
    TITLE "10:cjc026_07407"
    INDEX 01 00:12:18
  TRACK 21 AUDIO
    TITLE "0:"
    INDEX 01 00:13:20
  TRACK 22 AUDIO
    TITLE "11:cjc026_07408"
    INDEX 01 00:13:45
  TRACK 23 AUDIO
    TITLE "0:"
    INDEX 01 00:14:41
  TRACK 24 AUDIO
    TITLE "12:cjc026_07409"
    INDEX 01 00:14:66
  TRACK 25 AUDIO
    TITLE "0:"
    INDEX 01 00:15:68
  TRACK 26 AUDIO
    TITLE "10:cjc026_07410"
    INDEX 01 00:16:18
  TRACK 27 AUDIO
    TITLE "0:"
    INDEX 01 00:17:18
  TRACK 28 AUDIO
    TITLE "11:cjc026_07411"
    INDEX 01 00:17:45
  TRACK 29 AUDIO
    TITLE "0:"
    INDEX 01 00:18:46
  TRACK 30 AUDIO
    TITLE "12:cjc026_07412"
    INDEX 01 00:18:70
  TRACK 31 AUDIO
    TITLE "0:"
    INDEX 01 00:19:71
  TRACK 32 AUDIO
    TITLE "10:cjc026_07413"
    INDEX 01 00:20:22
  TRACK 33 AUDIO
    TITLE "0:"
    INDEX 01 00:21:25
  TRACK 34 AUDIO
    TITLE "11:cjc026_07414"
    INDEX 01 00:21:53
  TRACK 35 AUDIO
    TITLE "0:"
    INDEX 01 00:22:74
  TRACK 36 AUDIO
    TITLE "12:cjc026_07415"
    INDEX 01 00:23:24
  TRACK 37 AUDIO
    TITLE "0:"
    INDEX 01 00:24:29
  TRACK 38 AUDIO
    TITLE "10:cjc026_07416"
    INDEX 01 00:24:55
  TRACK 39 AUDIO
    TITLE "0:"
    INDEX 01 00:25:52
  TRACK 40 AUDIO
    TITLE "11:cjc026_07417"
    INDEX 01 00:26:03
  TRACK 41 AUDIO
    TITLE "0:"
    INDEX 01 00:27:59
  TRACK 42 AUDIO
    TITLE "12:cjc026_07418"
    INDEX 01 00:28:10
  TRACK 43 AUDIO
    TITLE "0:"
    INDEX 01 00:29:07
  TRACK 44 AUDIO
    TITLE "10:cjc026_07419"
    INDEX 01 00:29:31
  TRACK 45 AUDIO
    TITLE "0:"
    INDEX 01 00:30:30
  TRACK 46 AUDIO
    TITLE "11:cjc026_07420"
    INDEX 01 00:30:55
  TRACK 47 AUDIO
    TITLE "0:"
    INDEX 01 00:32:37
  TRACK 48 AUDIO
    TITLE "12:cjc026_07421"
    INDEX 01 00:32:62
  TRACK 49 AUDIO
    TITLE "0:"
    INDEX 01 00:33:60
  TRACK 50 AUDIO
    TITLE "10:cjc026_07422"
    INDEX 01 00:34:10
  TRACK 51 AUDIO
    TITLE "0:"
    INDEX 01 00:35:00
  TRACK 52 AUDIO
    TITLE "11:cjc026_07423"
    INDEX 01 00:35:25
  TRACK 53 AUDIO
    TITLE "0:"
    INDEX 01 00:37:08
  TRACK 54 AUDIO
    TITLE "12:cjc026_07424"
    INDEX 01 00:37:34
  TRACK 55 AUDIO
    TITLE "0:"
    INDEX 01 00:38:24
  TRACK 56 AUDIO
    TITLE "10:cjc026_07425"
    INDEX 01 00:38:51
  TRACK 57 AUDIO
    TITLE "0:"
    INDEX 01 00:39:31
  TRACK 58 AUDIO
    TITLE "11:cjc026_07426"
    INDEX 01 00:39:62
  TRACK 59 AUDIO
    TITLE "0:"
    INDEX 01 00:40:66
  TRACK 60 AUDIO
    TITLE "12:cjc026_07427"
    INDEX 01 00:41:18
  TRACK 61 AUDIO
    TITLE "0:"
    INDEX 01 00:41:73
  TRACK 62 AUDIO
    TITLE "10:cjc026_07428"
    INDEX 01 00:42:29
  TRACK 63 AUDIO
    TITLE "0:"
    INDEX 01 00:43:19
  TRACK 64 AUDIO
    TITLE "11:cjc026_07429"
    INDEX 01 00:43:44
  TRACK 65 AUDIO
    TITLE "0:"
    INDEX 01 00:44:52
  TRACK 66 AUDIO
    TITLE "12:cjc026_07430"
    INDEX 01 00:45:04
  TRACK 67 AUDIO
    TITLE "0:"
    INDEX 01 00:45:69
  TRACK 68 AUDIO
    TITLE "10:cjc026_07431"
    INDEX 01 00:46:17
  TRACK 69 AUDIO
    TITLE "0:"
    INDEX 01 00:47:01
  TRACK 70 AUDIO
    TITLE "11:cjc026_07432"
    INDEX 01 00:47:30
  TRACK 71 AUDIO
    TITLE "0:"
    INDEX 01 00:48:08
  TRACK 72 AUDIO
    TITLE "12:cjc026_07433"
    INDEX 01 00:48:34
  TRACK 73 AUDIO
    TITLE "0:"
    INDEX 01 00:49:18
